<svg xmlns="http://www.w3.org/2000/svg" viewBox="0 0 520 130" fill="none">
  <!-- Pinwheel mark (recreation, transparent background) -->
  <g transform="translate(65 65)">
    <!-- 7 spiral blades around an open center -->
    <g>
      <path d="M0 -52 C 18 -50 30 -38 28 -20 C 20 -30 8 -34 0 -30 Z" fill="#e02424" transform="rotate(0)"/>
      <path d="M0 -52 C 18 -50 30 -38 28 -20 C 20 -30 8 -34 0 -30 Z" fill="#f59e0b" transform="rotate(51.4)"/>
      <path d="M0 -52 C 18 -50 30 -38 28 -20 C 20 -30 8 -34 0 -30 Z" fill="#16a34a" transform="rotate(102.8)"/>
      <path d="M0 -52 C 18 -50 30 -38 28 -20 C 20 -30 8 -34 0 -30 Z" fill="#0ea5e9" transform="rotate(154.2)"/>
      <path d="M0 -52 C 18 -50 30 -38 28 -20 C 20 -30 8 -34 0 -30 Z" fill="#1e3a8a" transform="rotate(205.6)"/>
      <path d="M0 -52 C 18 -50 30 -38 28 -20 C 20 -30 8 -34 0 -30 Z" fill="#7c3aed" transform="rotate(257)"/>
      <path d="M0 -52 C 18 -50 30 -38 28 -20 C 20 -30 8 -34 0 -30 Z" fill="#db2777" transform="rotate(308.4)"/>
    </g>
  </g>
  <!-- Wordmark -->
  <g fill="#e6edf3" font-family="'Space Mono','JetBrains Mono',monospace">
    <text x="130" y="78" font-size="56" font-weight="700" letter-spacing="6">HAKI</text>
    <text x="372" y="78" font-size="40" font-weight="400" letter-spacing="2" fill="#9fb3c8">pro</text>
  </g>
</svg>
