<svg xmlns="http://www.w3.org/2000/svg" viewBox="0 0 256 360" fill="none">
  <g fill="#0b0b0b" fill-rule="evenodd">
    <!-- bat: thin handle -> thick rounded barrel -->
    <path d="M150 110 C 172 92 202 66 226 46 C 233 40 243 46 240 54
             C 237 63 210 84 188 100 C 171 112 159 118 153 117 C 146 116 144 116 150 110 Z"/>
    <!-- batting helmet: dome + ear flap + short brim -->
    <path d="M104 62 C 104 41 120 28 132 28 C 151 28 163 43 163 62
             C 163 65 162 68 161 70 L 173 70 C 178 70 179 77 173 79 L 159 79
             C 157 88 150 95 140 97 C 135 99 127 98 121 95 C 110 90 104 78 104 62 Z"/>
    <!-- neck + trapezius -->
    <path d="M120 92 C 128 96 138 96 146 92 C 150 100 150 108 146 114
             C 138 110 128 110 120 113 C 117 105 117 98 120 92 Z"/>
    <!-- torso: broad chest + lat taper to waist, slight back lean -->
    <path d="M96 120 C 94 110 102 104 112 105 C 130 107 150 113 158 124
             C 163 138 162 156 156 174 C 152 187 150 200 149 210
             C 148 220 142 228 130 229 L 116 228 C 106 226 102 217 103 206
             C 105 188 102 168 98 150 C 96 140 95 128 96 120 Z"/>
    <!-- near arm: shoulder -> bicep -> forearm -> hands gripping bat -->
    <path d="M99 126 C 97 116 105 110 115 112 C 128 114 140 118 150 110
             C 156 106 163 112 157 118 C 149 123 140 123 134 125
             C 124 129 114 132 108 134 C 101 135 99 134 99 126 Z"/>
    <!-- front leg (right): muscular thigh -> knee -> calf -> cleat -->
    <path d="M132 218 C 147 223 158 238 163 256 C 167 271 166 289 161 306
             C 159 316 156 326 154 332 L 140 332 C 142 322 147 310 148 296
             C 150 278 147 260 138 244 C 132 233 123 224 119 220 C 121 216 127 216 132 218 Z"/>
    <path d="M138 330 L 166 330 C 176 330 177 341 167 344 L 137 344 C 131 342 132 331 138 330 Z"/>
    <!-- back leg (left): thigh -> knee -> calf -> cleat -->
    <path d="M116 220 C 108 232 102 250 100 270 C 98 287 98 306 100 322
             L 87 326 C 83 306 83 284 86 264 C 89 244 98 228 107 220 C 109 215 114 216 116 220 Z"/>
    <path d="M81 324 L 107 320 C 117 318 119 329 109 332 L 79 336 C 73 334 74 326 81 324 Z"/>
  </g>
</svg>
