<svg xmlns="http://www.w3.org/2000/svg" viewBox="0 0 256 340" fill="none">
  <g fill="#0b0b0b" fill-rule="evenodd">
    <!-- cap: dome + brim pointing right (running right) -->
    <path d="M108 54 C108 36 124 26 134 26 C150 26 162 40 162 56 C162 58 162 60 161 62
             L172 62 C176 62 177 68 172 70 L160 70
             C157 78 150 84 140 86 C134 88 126 87 120 84 C112 79 108 68 108 54 Z"/>
    <!-- neck (leaning forward) -->
    <path d="M126 84 L146 88 L142 104 L122 100 Z"/>
    <!-- torso, forward lean -->
    <path d="M112 116 C108 106 114 98 124 98 C140 100 158 106 162 118
             C166 134 160 156 150 172 C143 182 132 186 122 184
             C112 182 106 172 106 160 C106 142 108 128 112 116 Z"/>
    <!-- lead arm bent forward-up -->
    <path d="M150 120 C164 116 180 118 192 126 C200 131 200 140 194 142
             C186 145 176 142 166 140 C156 138 148 134 144 128 C142 122 144 120 150 120 Z"/>
    <!-- back arm bent, driving back -->
    <path d="M118 128 C104 132 90 142 82 156 C77 165 78 174 84 175
             C90 176 96 168 102 158 C109 147 120 140 128 136 C134 132 126 126 118 128 Z"/>
    <!-- lead leg: high knee -> shin -> foot -->
    <path d="M130 174 C146 176 164 172 176 166 C184 162 186 154 180 151
             C172 148 160 152 150 158 C140 163 132 166 126 168 C122 172 124 174 130 174 Z"/>
    <path d="M176 164 C183 176 185 192 183 206 C182 213 175 216 171 211
             C167 206 167 196 168 186 C169 178 171 170 175 164 C175 163 176 163 176 164 Z"/>
    <ellipse cx="180" cy="210" rx="13" ry="7"/>
    <!-- back leg: extended back, toe push-off -->
    <path d="M122 180 C112 196 98 216 86 234 C78 246 70 256 62 262
             C56 266 50 260 54 254 C62 242 74 228 84 212 C96 194 106 180 112 172
             C118 174 122 176 122 180 Z"/>
    <ellipse cx="59" cy="261" rx="11" ry="6"/>
  </g>
</svg>
