<svg xmlns="http://www.w3.org/2000/svg" viewBox="0 0 256 340" fill="none">
  <g fill="#0b0b0b" fill-rule="evenodd">
    <!-- bat (tapered: thin handle -> thick barrel), angled up-right, clearing the head -->
    <path d="M147 104
             C 170 88 200 64 224 44
             C 230 39 239 44 236 52
             C 233 60 208 80 186 94
             C 170 104 158 110 153 110
             C 146 110 143 108 147 104 Z"/>
    <!-- near arm gripping the bat across the chest: shoulder -> elbow -> hands -->
    <path d="M100 120
             C 98 110 104 104 113 105
             C 126 107 140 110 149 105
             C 154 102 160 107 157 113
             C 152 119 144 122 136 123
             C 126 125 116 127 110 131
             C 103 133 100 128 100 120 Z"/>
    <!-- batting helmet: dome + short brim + ear flap (facing right) -->
    <path d="M106 60
             C 106 41 122 30 132 30
             C 149 30 160 43 160 60
             C 160 62 160 64 159 66
             L 170 66 C 174 66 175 72 170 74 L 158 74
             C 156 82 150 88 141 90
             C 137 92 129 91 124 88
             C 113 84 106 73 106 60 Z"/>
    <!-- neck -->
    <path d="M122 86 L142 88 L140 104 L123 102 Z"/>
    <!-- torso: V-taper (broad chest/shoulders -> narrow waist), slight back lean -->
    <path d="M98 112
             C 96 104 104 99 113 101
             C 128 103 146 107 154 116
             C 160 128 160 142 156 156
             C 153 167 150 180 148 192
             C 146 202 140 210 130 211
             L 118 210
             C 110 208 107 200 108 190
             C 110 174 108 156 104 140
             C 101 130 99 120 98 112 Z"/>
    <!-- front leg (right): thigh -> knee -> calf -> shoe -->
    <path d="M130 200
             C 144 204 154 216 159 232
             C 163 246 163 262 159 278
             C 157 288 154 297 152 304
             L 140 304
             C 142 296 146 286 147 274
             C 149 258 146 242 138 228
             C 132 218 124 210 120 206
             C 122 201 126 199 130 200 Z"/>
    <path d="M138 301 L164 301 C 173 301 174 311 165 314 L137 314 C 132 312 132 302 138 301 Z"/>
    <!-- back leg (left): thigh -> knee -> calf -> shoe -->
    <path d="M116 202
             C 109 212 104 228 102 246
             C 100 262 100 280 102 296
             L 90 300
             C 86 282 86 262 89 244
             C 92 226 100 212 108 204
             C 110 200 114 200 116 202 Z"/>
    <path d="M84 298 L108 294 C 116 293 118 303 109 306 L82 310 C 77 308 78 300 84 298 Z"/>
  </g>
</svg>
