<svg xmlns="http://www.w3.org/2000/svg" viewBox="0 0 256 340" fill="none">
  <g fill="#0b0b0b" fill-rule="evenodd">
    <!-- cap: dome + brim pointing left (toward target) -->
    <path d="M150 58 C150 40 136 28 124 28 C108 28 96 42 96 58 C96 60 96 62 97 64
             L84 64 C80 64 79 70 84 72 L98 72
             C101 80 108 86 118 88 C124 90 132 89 138 86 C146 81 150 72 150 58 Z"/>
    <!-- neck -->
    <path d="M116 86 L138 86 L136 102 L118 102 Z"/>
    <!-- torso (upright, slight lean) -->
    <path d="M106 100 C104 92 110 88 119 89 C134 91 150 96 154 106
             C158 124 156 150 150 172 C147 184 138 190 126 189
             L116 188 C107 186 104 178 104 166 C104 142 105 118 106 100 Z"/>
    <!-- glove arm up-forward-left, glove at end -->
    <path d="M112 104 C100 100 86 94 76 86 C70 82 64 84 64 90
             C64 96 72 100 80 104 C92 110 104 114 116 116 C122 118 120 106 112 104 Z"/>
    <ellipse cx="69" cy="85" rx="13" ry="14"/>
    <!-- throwing arm down-and-back-right to low ball -->
    <path d="M150 108 C164 116 178 130 186 146 C190 154 188 162 182 162
             C176 162 172 154 166 146 C158 134 148 124 142 118 C138 112 144 104 150 108 Z"/>
    <circle cx="184" cy="159" r="10"/>
    <!-- lifted front leg: high thigh -> shin -> tucked foot -->
    <path d="M120 176 C108 172 92 170 82 174 C74 177 72 186 78 189
             C86 192 100 188 110 184 C118 181 126 180 130 180 C133 176 126 174 120 176 Z"/>
    <path d="M80 184 C76 194 76 206 80 214 C82 219 90 220 94 215
             C98 210 96 200 94 192 C92 186 88 182 84 182 C82 182 80 183 80 184 Z"/>
    <ellipse cx="88" cy="216" rx="13" ry="7"/>
    <!-- planted drive leg + shoe -->
    <path d="M128 182 C132 204 136 232 138 258 C139 274 140 288 140 300
             L128 300 C126 286 122 270 120 252 C118 230 114 206 112 188 C114 182 122 180 128 182 Z"/>
    <path d="M122 298 L148 298 C156 298 156 308 148 310 L120 310 C115 308 116 298 122 298 Z"/>
  </g>
</svg>
