<svg xmlns="http://www.w3.org/2000/svg" viewBox="0 0 200 300" fill="none">
  <g fill="#000000">
    <!-- head -->
    <circle cx="96" cy="44" r="17"/>
    <!-- helmet brim -->
    <path d="M79 40 q-14 -2 -18 6 q12 0 20 2 z"/>
    <!-- torso (twisted batting stance) -->
    <path d="M88 60 q22 -2 30 16 q8 22 2 44 q-4 16 -18 22 q-18 6 -28 -6 q-8 -12 -2 -30 q6 -32 16 -46 z"/>
    <!-- front leg -->
    <path d="M80 138 q-6 30 -20 52 q-8 14 -16 24 l14 8 q12 -18 22 -36 q10 -20 14 -44 z"/>
    <!-- back leg -->
    <path d="M104 140 q12 26 30 40 q12 10 24 14 l6 -16 q-14 -6 -26 -18 q-14 -14 -20 -32 z"/>
    <!-- arms gripping bat -->
    <path d="M112 74 q26 -8 44 -28 q8 -8 14 -18 l11 7 q-8 14 -20 26 q-20 22 -44 30 z"/>
    <!-- bat raised behind -->
    <path d="M156 22 q14 -14 30 -28 l9 9 q-14 16 -28 30 q-6 6 -14 2 q-6 -6 3 -13 z"/>
  </g>
</svg>
